<mxfile host="app.diagrams.net" modified="2021-12-15T10:03:40.540Z" agent="5.0 (Windows NT 10.0; Win64; x64) AppleWebKit/537.36 (KHTML, like Gecko) Chrome/94.0.4606.71 Safari/537.36" etag="fVE7BxKGlSGr6FVQ9-Oe" version="14.7.4" type="github">
  <diagram id="VAKA2nnfKOur8gSiYJDS" name="第 1 页">
    <mxGraphModel dx="870" dy="538" grid="1" gridSize="10" guides="1" tooltips="1" connect="1" arrows="1" fold="1" page="1" pageScale="1" pageWidth="827" pageHeight="1169" math="0" shadow="0">
      <root>
        <mxCell id="0" />
        <mxCell id="1" parent="0" />
        <mxCell id="fTlRH3zY6GzR0nQ0hEID-33" value="" style="rounded=0;whiteSpace=wrap;html=1;dashed=1;fillColor=#fff2cc;strokeColor=#d6b656;" vertex="1" parent="1">
          <mxGeometry x="380" y="270" width="70" height="30" as="geometry" />
        </mxCell>
        <mxCell id="fTlRH3zY6GzR0nQ0hEID-32" value="" style="rounded=0;whiteSpace=wrap;html=1;dashed=1;fillColor=#ffe6cc;strokeColor=#d79b00;" vertex="1" parent="1">
          <mxGeometry x="320" y="240" width="60" height="30" as="geometry" />
        </mxCell>
        <mxCell id="fTlRH3zY6GzR0nQ0hEID-28" value="" style="rounded=0;whiteSpace=wrap;html=1;dashed=1;fillColor=#d5e8d4;strokeColor=#82b366;" vertex="1" parent="1">
          <mxGeometry x="280" y="180" width="40" height="60" as="geometry" />
        </mxCell>
        <mxCell id="fTlRH3zY6GzR0nQ0hEID-21" value="" style="rounded=0;whiteSpace=wrap;html=1;dashed=1;fillColor=#dae8fc;strokeColor=#6c8ebf;" vertex="1" parent="1">
          <mxGeometry x="240" y="120" width="40" height="60" as="geometry" />
        </mxCell>
        <mxCell id="fTlRH3zY6GzR0nQ0hEID-1" value="" style="endArrow=classic;html=1;" edge="1" parent="1">
          <mxGeometry width="50" height="50" relative="1" as="geometry">
            <mxPoint x="240" y="300" as="sourcePoint" />
            <mxPoint x="240" y="90" as="targetPoint" />
          </mxGeometry>
        </mxCell>
        <mxCell id="fTlRH3zY6GzR0nQ0hEID-2" value="" style="endArrow=classic;html=1;" edge="1" parent="1">
          <mxGeometry width="50" height="50" relative="1" as="geometry">
            <mxPoint x="240" y="300" as="sourcePoint" />
            <mxPoint x="500" y="300" as="targetPoint" />
          </mxGeometry>
        </mxCell>
        <mxCell id="fTlRH3zY6GzR0nQ0hEID-3" value="" style="endArrow=none;html=1;edgeStyle=orthogonalEdgeStyle;curved=1;endFill=0;" edge="1" parent="1">
          <mxGeometry width="50" height="50" relative="1" as="geometry">
            <mxPoint x="450" y="290" as="sourcePoint" />
            <mxPoint x="270" y="120" as="targetPoint" />
          </mxGeometry>
        </mxCell>
        <mxCell id="fTlRH3zY6GzR0nQ0hEID-4" value="" style="ellipse;whiteSpace=wrap;html=1;aspect=fixed;fillColor=#d5e8d4;strokeColor=#82b366;" vertex="1" parent="1">
          <mxGeometry x="404" y="280" width="10" height="10" as="geometry" />
        </mxCell>
        <mxCell id="fTlRH3zY6GzR0nQ0hEID-6" value="" style="ellipse;whiteSpace=wrap;html=1;aspect=fixed;fillColor=#d5e8d4;strokeColor=#82b366;" vertex="1" parent="1">
          <mxGeometry x="320" y="250" width="10" height="10" as="geometry" />
        </mxCell>
        <mxCell id="fTlRH3zY6GzR0nQ0hEID-7" value="" style="ellipse;whiteSpace=wrap;html=1;aspect=fixed;fillColor=#d5e8d4;strokeColor=#82b366;" vertex="1" parent="1">
          <mxGeometry x="295" y="220" width="10" height="10" as="geometry" />
        </mxCell>
        <mxCell id="fTlRH3zY6GzR0nQ0hEID-8" value="" style="ellipse;whiteSpace=wrap;html=1;aspect=fixed;fillColor=#d5e8d4;strokeColor=#82b366;" vertex="1" parent="1">
          <mxGeometry x="270" y="160" width="10" height="10" as="geometry" />
        </mxCell>
        <mxCell id="fTlRH3zY6GzR0nQ0hEID-37" value="目标优化1" style="text;html=1;strokeColor=none;fillColor=none;align=center;verticalAlign=middle;whiteSpace=wrap;rounded=0;dashed=1;fontSize=16;" vertex="1" parent="1">
          <mxGeometry x="404" y="310" width="80" height="20" as="geometry" />
        </mxCell>
        <mxCell id="fTlRH3zY6GzR0nQ0hEID-38" value="目标优化2" style="text;html=1;strokeColor=none;fillColor=none;align=center;verticalAlign=middle;whiteSpace=wrap;rounded=0;dashed=1;fontSize=16;" vertex="1" parent="1">
          <mxGeometry x="200" y="135" width="20" height="60" as="geometry" />
        </mxCell>
        <mxCell id="fTlRH3zY6GzR0nQ0hEID-39" value="&lt;span style=&quot;font-size: 12.0pt ; line-height: 150%&quot;&gt;帕累托平面&lt;/span&gt;" style="text;html=1;strokeColor=none;fillColor=none;align=center;verticalAlign=middle;whiteSpace=wrap;rounded=0;dashed=1;fontSize=16;" vertex="1" parent="1">
          <mxGeometry x="250" y="80" width="90" height="20" as="geometry" />
        </mxCell>
        <mxCell id="fTlRH3zY6GzR0nQ0hEID-40" value="按需分成四个等级" style="text;html=1;strokeColor=none;fillColor=none;align=center;verticalAlign=middle;whiteSpace=wrap;rounded=0;dashed=1;fontSize=16;" vertex="1" parent="1">
          <mxGeometry x="440" y="180" width="131" height="20" as="geometry" />
        </mxCell>
        <mxCell id="fTlRH3zY6GzR0nQ0hEID-41" value="" style="endArrow=classic;html=1;fontSize=16;" edge="1" parent="1">
          <mxGeometry width="50" height="50" relative="1" as="geometry">
            <mxPoint x="404" y="155" as="sourcePoint" />
            <mxPoint x="344" y="145" as="targetPoint" />
            <Array as="points">
              <mxPoint x="404" y="155" />
            </Array>
          </mxGeometry>
        </mxCell>
        <mxCell id="fTlRH3zY6GzR0nQ0hEID-42" value="" style="endArrow=classic;html=1;fontSize=16;" edge="1" parent="1">
          <mxGeometry width="50" height="50" relative="1" as="geometry">
            <mxPoint x="404" y="195" as="sourcePoint" />
            <mxPoint x="334" y="200" as="targetPoint" />
            <Array as="points">
              <mxPoint x="404" y="195" />
            </Array>
          </mxGeometry>
        </mxCell>
        <mxCell id="fTlRH3zY6GzR0nQ0hEID-43" value="" style="endArrow=classic;html=1;fontSize=16;" edge="1" parent="1">
          <mxGeometry width="50" height="50" relative="1" as="geometry">
            <mxPoint x="440" y="230" as="sourcePoint" />
            <mxPoint x="400" y="250" as="targetPoint" />
            <Array as="points">
              <mxPoint x="440" y="230" />
            </Array>
          </mxGeometry>
        </mxCell>
        <mxCell id="fTlRH3zY6GzR0nQ0hEID-44" value="" style="endArrow=classic;html=1;fontSize=16;" edge="1" parent="1">
          <mxGeometry width="50" height="50" relative="1" as="geometry">
            <mxPoint x="494" y="240" as="sourcePoint" />
            <mxPoint x="470" y="270" as="targetPoint" />
            <Array as="points">
              <mxPoint x="494" y="240" />
            </Array>
          </mxGeometry>
        </mxCell>
      </root>
    </mxGraphModel>
  </diagram>
</mxfile>
